<svg xmlns="http://www.w3.org/2000/svg" xmlns:xlink="http://www.w3.org/1999/xlink" width="500" zoomAndPan="magnify" viewBox="0 0 375 374.999991" height="500" preserveAspectRatio="xMidYMid meet" version="1.0"><defs><g/><clipPath id="01525fccfc"><path d="M 75 0 L 300 0 C 341.421875 0 375 33.578125 375 75 L 375 300 C 375 341.421875 341.421875 375 300 375 L 75 375 C 33.578125 375 0 341.421875 0 300 L 0 75 C 0 33.578125 33.578125 0 75 0 Z M 75 0 " clip-rule="nonzero"/></clipPath></defs><g clip-path="url(#01525fccfc)"><rect x="-37.5" width="450" fill="#0f4be0" y="-37.499999" height="449.999989" fill-opacity="1"/></g><g fill="#ffffff" fill-opacity="1"><g transform="translate(37.511721, 216.749986)"><g><path d="M 55.078125 0 L 42.515625 0 L 42.515625 -26.140625 L 18.015625 -26.140625 L 18.015625 0 L 5.4375 0 L 5.4375 -60.984375 L 18.015625 -60.984375 L 18.015625 -36.265625 L 42.515625 -36.265625 L 42.515625 -60.984375 L 55.078125 -60.984375 Z M 55.078125 0 "/></g></g></g><g fill="#ffffff" fill-opacity="1"><g transform="translate(98.111582, 216.749986)"><g><path d="M 51.34375 -50.8125 L 32.671875 -50.8125 L 32.671875 0 L 20.109375 0 L 20.109375 -50.8125 L 1.671875 -50.8125 L 1.671875 -60.984375 L 51.34375 -60.984375 Z M 51.34375 -50.8125 "/></g></g></g><g fill="#ffffff" fill-opacity="1"><g transform="translate(151.173106, 216.749986)"><g><path d="M 51.34375 -50.8125 L 32.671875 -50.8125 L 32.671875 0 L 20.109375 0 L 20.109375 -50.8125 L 1.671875 -50.8125 L 1.671875 -60.984375 L 51.34375 -60.984375 Z M 51.34375 -50.8125 "/></g></g></g><g fill="#ffffff" fill-opacity="1"><g transform="translate(204.234629, 216.749986)"><g><path d="M 18.015625 -21.484375 L 18.015625 0 L 5.4375 0 L 5.4375 -60.984375 L 29.234375 -60.984375 C 33.816406 -60.984375 37.84375 -60.144531 41.3125 -58.46875 C 44.789062 -56.789062 47.460938 -54.410156 49.328125 -51.328125 C 51.203125 -48.242188 52.140625 -44.734375 52.140625 -40.796875 C 52.140625 -34.816406 50.09375 -30.101562 46 -26.65625 C 41.914062 -23.207031 36.257812 -21.484375 29.03125 -21.484375 Z M 18.015625 -31.671875 L 29.234375 -31.671875 C 32.554688 -31.671875 35.085938 -32.453125 36.828125 -34.015625 C 38.578125 -35.578125 39.453125 -37.8125 39.453125 -40.71875 C 39.453125 -43.695312 38.570312 -46.109375 36.8125 -47.953125 C 35.050781 -49.796875 32.625 -50.75 29.53125 -50.8125 L 18.015625 -50.8125 Z M 18.015625 -31.671875 "/></g></g></g><g fill="#ffffff" fill-opacity="1"><g transform="translate(259.557665, 216.749986)"><g><path d="M 30.109375 -33.96875 C 28.460938 -34.1875 27.015625 -34.296875 25.765625 -34.296875 C 21.179688 -34.296875 18.175781 -32.75 16.75 -29.65625 L 16.75 0 L 4.65625 0 L 4.65625 -45.3125 L 16.078125 -45.3125 L 16.421875 -39.921875 C 18.847656 -44.078125 22.210938 -46.15625 26.515625 -46.15625 C 27.859375 -46.15625 29.113281 -45.972656 30.28125 -45.609375 Z M 30.109375 -33.96875 "/></g></g></g><g fill="#ffffff" fill-opacity="1"><g transform="translate(290.841782, 216.749986)"><g><path d="M 2.765625 -23.078125 C 2.765625 -27.578125 3.628906 -31.582031 5.359375 -35.09375 C 7.085938 -38.613281 9.578125 -41.335938 12.828125 -43.265625 C 16.085938 -45.191406 19.867188 -46.15625 24.171875 -46.15625 C 30.285156 -46.15625 35.273438 -44.285156 39.140625 -40.546875 C 43.003906 -36.804688 45.160156 -31.722656 45.609375 -25.296875 L 45.703125 -22.203125 C 45.703125 -15.242188 43.757812 -9.660156 39.875 -5.453125 C 35.988281 -1.253906 30.78125 0.84375 24.25 0.84375 C 17.71875 0.84375 12.503906 -1.25 8.609375 -5.4375 C 4.710938 -9.632812 2.765625 -15.332031 2.765625 -22.53125 Z M 14.875 -22.203125 C 14.875 -17.898438 15.679688 -14.609375 17.296875 -12.328125 C 18.921875 -10.054688 21.238281 -8.921875 24.25 -8.921875 C 27.1875 -8.921875 29.476562 -10.046875 31.125 -12.296875 C 32.769531 -14.546875 33.59375 -18.140625 33.59375 -23.078125 C 33.59375 -27.296875 32.769531 -30.5625 31.125 -32.875 C 29.476562 -35.195312 27.160156 -36.359375 24.171875 -36.359375 C 21.210938 -36.359375 18.921875 -35.207031 17.296875 -32.90625 C 15.679688 -30.601562 14.875 -27.035156 14.875 -22.203125 Z M 14.875 -22.203125 "/></g></g></g></svg>